<svg width="50" height="50" viewBox="0 0 50 50" fill="none" xmlns="http://www.w3.org/2000/svg">
<circle cx="25" cy="25" r="25" fill="#4C71F1"/>
<g clip-path="url(#clip0_901_784)">
<g clip-path="url(#clip1_901_784)">
<path d="M13.5246 24.0246C12.8271 24.7221 12.8271 25.8549 13.5246 26.5525L22.4532 35.481C23.1507 36.1786 24.2836 36.1786 24.9811 35.481C25.6786 34.7835 25.6786 33.6507 24.9811 32.9531L19.0938 27.0714H36.2144C37.2021 27.0714 38.0001 26.2735 38.0001 25.2857C38.0001 24.298 37.2021 23.5 36.2144 23.5H19.0994L24.9755 17.6183C25.6731 16.9208 25.6731 15.788 24.9755 15.0904C24.278 14.3929 23.1452 14.3929 22.4476 15.0904L13.519 24.019L13.5246 24.0246Z" fill="white"/>
</g>
</g>
<defs>
<clipPath id="clip0_901_784">
<rect width="25" height="25" fill="white" transform="translate(13 12)"/>
</clipPath>
<clipPath id="clip1_901_784">
<rect width="25" height="28.5714" fill="white" transform="translate(13 11)"/>
</clipPath>
</defs>
</svg>
