<svg width="50" height="50" viewBox="0 0 50 50" fill="none" xmlns="http://www.w3.org/2000/svg">
<circle cx="25" cy="25" r="25" fill="#4C71F1"/>
<g clip-path="url(#clip0_901_787)">
<path d="M36.4754 26.5469C37.173 25.8493 37.173 24.7165 36.4754 24.019L27.5469 15.0904C26.8493 14.3929 25.7165 14.3929 25.019 15.0904C24.3214 15.788 24.3214 16.9208 25.019 17.6183L30.9062 23.5H13.7857C12.798 23.5 12 24.298 12 25.2857C12 26.2735 12.798 27.0714 13.7857 27.0714H30.9007L25.0246 32.9531C24.327 33.6507 24.327 34.7835 25.0246 35.481C25.7221 36.1786 26.8549 36.1786 27.5525 35.481L36.481 26.5525L36.4754 26.5469Z" fill="white"/>
</g>
<defs>
<clipPath id="clip0_901_787">
<rect width="25" height="25" fill="white" transform="translate(12 12)"/>
</clipPath>
</defs>
</svg>
